<svg id="visual" viewBox="0 0 1920 5000" width="1920" height="5000" xmlns="http://www.w3.org/2000/svg" xmlns:xlink="http://www.w3.org/1999/xlink" version="1.1"><rect x="0" y="0" width="1920" height="5000" fill="#1C1C20"></rect><defs><linearGradient id="grad1_0" x1="0%" y1="0%" x2="100%" y2="100%"><stop offset="30%" stop-color="#1c1c20" stop-opacity="1"></stop><stop offset="70%" stop-color="#1c1c20" stop-opacity="1"></stop></linearGradient></defs><defs><linearGradient id="grad2_0" x1="0%" y1="0%" x2="100%" y2="100%"><stop offset="30%" stop-color="#1c1c20" stop-opacity="1"></stop><stop offset="70%" stop-color="#1c1c20" stop-opacity="1"></stop></linearGradient></defs><g transform="translate(1920, 0)"><path d="M0 1728C-223.8 1699.7 -447.7 1671.4 -660.1 1593.7C-872.6 1515.9 -1073.7 1388.7 -1221.9 1221.9C-1370.1 1055 -1465.5 848.6 -1541 638.3C-1616.6 428.1 -1672.3 214 -1728 0L0 0Z" fill="#33B074"></path></g><g transform="translate(0, 5000)"><path d="M0 -1728C221 -1680.7 442 -1633.3 640.2 -1545.7C838.4 -1458 1013.8 -1330 1180.9 -1180.9C1347.9 -1031.8 1506.7 -861.6 1596.5 -661.3C1686.3 -461 1707.1 -230.5 1728 0L0 0Z" fill="#33B074"></path></g></svg>